<svg width="3261" height="4883" viewBox="0 0 3261 4883" fill="none" xmlns="http://www.w3.org/2000/svg">
<g opacity="0.5" filter="url(#filter0_f_525_875)">
<g filter="url(#filter1_f_525_875)">
<path d="M163.01 760.147C163.01 760.147 744.681 395.639 1151.38 271.353C1461.01 176.729 1817.91 163.693 1817.91 163.693C1817.91 163.693 2282.45 175.016 2570.19 271.353C3098 448.068 3056.44 440.734 3056.44 1407.93C3056.44 3868.59 2616.45 1340.02 2616.45 1340.02C2616.45 1340.02 2211.73 1046.22 1693.37 1340.02C1562.87 1413.99 1534.02 1419.04 1219.86 1648.25C1038.83 1780.32 887.69 1862.53 776.577 2059.9C665.463 2257.26 634.155 2463.02 634.155 2591.17C634.155 2846.25 671.695 2962.94 721.984 3045.84C749.062 3090.48 818.91 3292.05 1017.77 3445.1C1048.25 3468.57 1220.7 3798.88 1537.62 3658.59C1591.1 3634.91 1693.37 3514.61 1693.37 3514.61C1693.37 3514.61 1713.81 3607.37 1693.37 3871.73C1668.52 4193.23 950.567 4346.86 950.567 4346.86C950.567 4346.86 666.363 4246.03 163.011 3959.97C163.011 3959.97 163.011 3514.61 163.01 1716.75C163.009 1151.13 163.01 760.147 163.01 760.147Z" fill="#7338AC"/>
</g>
<g filter="url(#filter2_f_525_875)">
<path d="M2129.89 3186.09C2131.9 3186.03 2134.79 3187.11 2134.79 3187.11C2134.79 3187.11 2133.08 3186.7 2129.89 3186.09C2125.05 3186.22 2125.32 3192.98 2183.63 3237.58C2311.85 3335.65 2412.4 3655.8 2412.4 3870.46C2412.4 4082.83 2272.72 4355.78 2134.79 4477.33C1871.42 4709.43 1836.83 4675.44 1614.8 4704.16C1470.78 4722.79 1337.83 4718.52 1173.35 4704.16C1031.47 4691.78 823.085 4619.16 823.085 4619.16C823.085 4619.16 593.718 4565.46 423.082 4477.33C233.66 4379.51 189.882 4377.16 189.883 4241.9C189.884 4106.64 189.883 3935.53 189.883 3935.53C287.574 3989.75 443.623 4169.06 579.056 4183.76C986.1 4227.91 1161.13 4183.76 1220.15 4183.76C1279.17 4183.76 1637.28 4038.67 1684.18 3950.36C1766.76 3794.87 1684.18 3641.42 1684.18 3494.7C1684.18 3406.39 1787.98 3386.42 1787.98 3386.42L1822.57 3285.5C1933.13 3155.1 2099.4 3180.17 2129.89 3186.09Z" fill="url(#paint0_linear_525_875)"/>
</g>
<g filter="url(#filter3_f_525_875)">
<path d="M1975.56 2157.99C2227.77 2093.15 3009.18 2534.99 3063.78 3093V1843.05C3063.78 1199.34 2739.48 1139.04 2564.29 1139.04L2556.71 1139.04C2381.09 1139.03 2105.33 1139.01 1884.72 1199.34C1660.91 1260.54 1322.25 1483.05 1322.25 1483.05C1322.25 1483.05 1008.43 1694.47 858.223 1911.99C689.986 2155.62 564.311 2398.29 607.892 2694.16C650.631 2984.32 699.845 3093.31 858.223 3306.02C980.337 3470.03 1010.86 3526.8 1206.25 3646.65C1299.62 3703.92 1481 3690.8 1481 3690.8C1481 3690.8 1283.32 3585.7 1206.25 3470.03C1108.13 3322.78 1104.84 3219.09 1120.77 3041.09C1138.64 2841.34 1340.57 2580.62 1340.57 2580.62C1340.57 2580.62 1664.05 2238.08 1975.56 2157.99Z" fill="url(#paint1_linear_525_875)"/>
</g>
<g filter="url(#filter4_f_525_875)">
<path d="M1420.59 3705.93C1463.33 3726.26 1602.2 3783.25 1707.56 3642.56C1817.46 3495.81 1735.64 3509.47 1823.56 3395.4C1945.68 3236.96 1926.23 3274.99 1976.21 3236.96C2026.18 3198.94 2157.02 3236.96 2189.9 3236.96C2287.59 3236.96 2462.37 3370.05 2519.61 3465.11C2576.85 3560.17 2446.92 4394.27 2410.29 4622.42C2410.29 4622.42 3098 4342.94 3098 3071.81C3098 2105.99 2610.09 2045.58 2610.09 2045.58C2299.64 2014.62 2083.72 2011.36 1885.71 2072.47C1596.47 2161.74 1410.46 2396.2 1248.42 2618.01C1116.74 2798.26 1016.4 3131.34 1065.25 3359.49C1106.53 3552.31 1314.01 3655.23 1420.59 3705.93Z" fill="url(#paint2_linear_525_875)"/>
</g>
<g filter="url(#filter5_f_525_875)">
<path d="M2323.02 3230.63C2227.87 3188.28 2054.37 3192.6 2054.37 3192.6C2054.37 3192.6 2179.8 3306.93 2231.43 3384.84C2290.43 3473.86 2304.58 3538.33 2323.02 3644.67C2342.02 3754.28 2340.83 3820.03 2323.02 3929.86C2304.99 4041 2285.8 4104.8 2231.43 4202.36C2179.77 4295.08 2089.14 4391.5 2011.63 4462.2C1882.66 4579.83 1566.94 4716.12 1566.94 4716.12C1566.94 4716.12 2262.8 4748.01 2402.39 4620.63C2500.11 4531.46 2544.8 4455.54 2591.67 4339.67C2641.82 4215.67 2664.82 4125.45 2671.04 3991.12C2678.94 3820.42 2591.67 3543.27 2591.67 3543.27C2591.67 3543.27 2460.94 3292.01 2323.02 3230.63Z" fill="#83EAFD"/>
</g>
</g>
<defs>
<filter id="filter0_f_525_875" x="0.0444031" y="0.727997" width="3260.92" height="4881.91" filterUnits="userSpaceOnUse" color-interpolation-filters="sRGB">
<feFlood flood-opacity="0" result="BackgroundImageFix"/>
<feBlend mode="normal" in="SourceGraphic" in2="BackgroundImageFix" result="shape"/>
<feGaussianBlur stdDeviation="81.4827" result="effect1_foregroundBlur_525_875"/>
</filter>
<filter id="filter1_f_525_875" x="129.451" y="130.134" width="2961.32" height="4250.29" filterUnits="userSpaceOnUse" color-interpolation-filters="sRGB">
<feFlood flood-opacity="0" result="BackgroundImageFix"/>
<feBlend mode="normal" in="SourceGraphic" in2="BackgroundImageFix" result="shape"/>
<feGaussianBlur stdDeviation="16.7795" result="effect1_foregroundBlur_525_875"/>
</filter>
<filter id="filter2_f_525_875" x="156.904" y="3147.26" width="2288.47" height="1602.3" filterUnits="userSpaceOnUse" color-interpolation-filters="sRGB">
<feFlood flood-opacity="0" result="BackgroundImageFix"/>
<feBlend mode="normal" in="SourceGraphic" in2="BackgroundImageFix" result="shape"/>
<feGaussianBlur stdDeviation="16.4896" result="effect1_foregroundBlur_525_875"/>
</filter>
<filter id="filter3_f_525_875" x="565.625" y="1105.48" width="2531.71" height="2620.18" filterUnits="userSpaceOnUse" color-interpolation-filters="sRGB">
<feFlood flood-opacity="0" result="BackgroundImageFix"/>
<feBlend mode="normal" in="SourceGraphic" in2="BackgroundImageFix" result="shape"/>
<feGaussianBlur stdDeviation="16.7795" result="effect1_foregroundBlur_525_875"/>
</filter>
<filter id="filter4_f_525_875" x="1019.12" y="1990.36" width="2112.44" height="2665.62" filterUnits="userSpaceOnUse" color-interpolation-filters="sRGB">
<feFlood flood-opacity="0" result="BackgroundImageFix"/>
<feBlend mode="normal" in="SourceGraphic" in2="BackgroundImageFix" result="shape"/>
<feGaussianBlur stdDeviation="16.7795" result="effect1_foregroundBlur_525_875"/>
</filter>
<filter id="filter5_f_525_875" x="1533.38" y="3158.92" width="1171.72" height="1594.31" filterUnits="userSpaceOnUse" color-interpolation-filters="sRGB">
<feFlood flood-opacity="0" result="BackgroundImageFix"/>
<feBlend mode="normal" in="SourceGraphic" in2="BackgroundImageFix" result="shape"/>
<feGaussianBlur stdDeviation="16.7795" result="effect1_foregroundBlur_525_875"/>
</filter>
<linearGradient id="paint0_linear_525_875" x1="974.498" y1="4836.14" x2="4119.17" y2="3461.08" gradientUnits="userSpaceOnUse">
<stop stop-color="#635AD9"/>
<stop offset="1" stop-color="#83EAFD"/>
</linearGradient>
<linearGradient id="paint1_linear_525_875" x1="1469.26" y1="3890.76" x2="5297.28" y2="2773.79" gradientUnits="userSpaceOnUse">
<stop stop-color="#635AD9"/>
<stop offset="1" stop-color="#83EAFD"/>
</linearGradient>
<linearGradient id="paint2_linear_525_875" x1="1262.77" y1="3214.44" x2="3140.93" y2="4787.47" gradientUnits="userSpaceOnUse">
<stop stop-color="#219BE4"/>
<stop offset="1" stop-color="#B7EFFE"/>
</linearGradient>
</defs>
</svg>
