<svg width="2001" height="2996" viewBox="0 0 2001 2996" fill="none" xmlns="http://www.w3.org/2000/svg">
<g opacity="0.5" filter="url(#filter0_f_525_875)">
<g filter="url(#filter1_f_525_875)">
<path d="M100.01 466C100.01 466 456.939 242.328 706.499 166.063C896.499 107.999 1115.5 100 1115.5 100C1115.5 100 1400.55 106.948 1577.12 166.063C1901 274.5 1875.5 270 1875.5 863.5C1875.5 2373.43 1605.51 821.827 1605.51 821.827C1605.51 821.827 1357.16 641.544 1039.08 821.827C959.004 867.214 941.297 870.316 748.519 1010.96C637.435 1092.01 544.694 1142.45 476.511 1263.56C408.329 1384.67 389.117 1510.93 389.117 1589.56C389.117 1746.09 412.153 1817.69 443.011 1868.56C459.627 1895.96 502.488 2019.65 624.511 2113.56C643.22 2127.96 749.037 2330.65 943.511 2244.56C976.328 2230.03 1039.08 2156.22 1039.08 2156.22C1039.08 2156.22 1051.62 2213.13 1039.08 2375.35C1023.83 2572.63 583.276 2666.91 583.276 2666.91C583.276 2666.91 408.881 2605.03 100.01 2429.5C100.01 2429.5 100.011 2156.22 100.01 1053C100.01 705.916 100.01 466 100.01 466Z" fill="#7338AC"/>
</g>
<g filter="url(#filter2_f_525_875)">
<path d="M1306.94 1954.62C1308.17 1954.59 1309.95 1955.25 1309.95 1955.25C1309.95 1955.25 1308.9 1955 1306.94 1954.62C1303.97 1954.7 1304.14 1958.85 1339.92 1986.22C1418.6 2046.4 1480.3 2242.85 1480.3 2374.58C1480.3 2504.89 1394.58 2672.38 1309.95 2746.97C1148.34 2889.39 1127.11 2868.53 990.869 2886.16C902.495 2897.59 820.909 2894.97 719.98 2886.16C632.919 2878.55 505.05 2833.99 505.05 2833.99C505.05 2833.99 364.304 2801.04 259.597 2746.97C143.363 2686.94 116.499 2685.5 116.5 2602.5C116.501 2519.5 116.5 2414.5 116.5 2414.5C176.446 2447.77 272.202 2557.81 355.307 2566.82C605.08 2593.91 712.483 2566.82 748.7 2566.82C784.917 2566.82 1004.66 2477.79 1033.44 2423.6C1084.11 2328.19 1033.44 2234.03 1033.44 2144C1033.44 2089.81 1097.13 2077.55 1097.13 2077.55L1118.36 2015.62C1186.2 1935.61 1288.23 1950.99 1306.94 1954.62Z" fill="url(#paint0_linear_525_875)"/>
</g>
<g filter="url(#filter3_f_525_875)">
<path d="M1212.24 1323.76C1367 1283.97 1846.5 1555.1 1880 1897.5V1130.5C1880 735.499 1681 698.499 1573.5 698.499L1568.85 698.498C1461.09 698.49 1291.87 698.478 1156.5 735.499C1019.16 773.056 811.353 909.594 811.353 909.594C811.353 909.594 618.78 1039.33 526.612 1172.8C423.377 1322.3 346.259 1471.21 373.002 1652.76C399.228 1830.81 429.427 1897.69 526.612 2028.22C601.544 2128.86 620.277 2163.69 740.168 2237.24C797.463 2272.38 908.765 2264.33 908.765 2264.33C908.765 2264.33 787.464 2199.84 740.168 2128.86C679.964 2038.5 677.941 1974.88 687.716 1865.65C698.686 1743.07 822.593 1583.09 822.593 1583.09C822.593 1583.09 1021.09 1372.9 1212.24 1323.76Z" fill="url(#paint1_linear_525_875)"/>
</g>
<g filter="url(#filter4_f_525_875)">
<path d="M871.696 2273.62C897.922 2286.09 983.133 2321.06 1047.79 2234.73C1115.22 2144.68 1065.02 2153.06 1118.97 2083.06C1193.9 1985.84 1181.97 2009.18 1212.64 1985.84C1243.3 1962.51 1323.59 1985.84 1343.77 1985.84C1403.71 1985.84 1510.96 2067.51 1546.08 2125.84C1581.21 2184.17 1501.48 2696 1479 2836C1479 2836 1901 2664.5 1901 1884.5C1901 1291.84 1601.61 1254.78 1601.61 1254.78C1411.11 1235.78 1278.61 1233.78 1157.11 1271.28C979.622 1326.06 865.478 1469.93 766.047 1606.04C685.245 1716.64 623.676 1921.03 653.649 2061.03C678.981 2179.35 806.292 2242.5 871.696 2273.62Z" fill="url(#paint2_linear_525_875)"/>
</g>
<g filter="url(#filter5_f_525_875)">
<path d="M1425.45 1981.95C1367.06 1955.97 1260.6 1958.62 1260.6 1958.62C1260.6 1958.62 1337.56 2028.77 1369.25 2076.58C1405.45 2131.21 1414.14 2170.77 1425.45 2236.02C1437.11 2303.28 1436.38 2343.63 1425.45 2411.02C1414.39 2479.22 1402.61 2518.37 1369.25 2578.24C1337.55 2635.13 1281.94 2694.29 1234.37 2737.68C1155.23 2809.86 961.5 2893.5 961.5 2893.5C961.5 2893.5 1388.5 2913.06 1474.15 2834.9C1534.12 2780.18 1561.54 2733.59 1590.3 2662.5C1621.08 2586.4 1635.19 2531.04 1639 2448.61C1643.85 2343.87 1590.3 2173.8 1590.3 2173.8C1590.3 2173.8 1510.08 2019.62 1425.45 1981.95Z" fill="#83EAFD"/>
</g>
</g>
<defs>
<filter id="filter0_f_525_875" x="0.00976562" y="0" width="2000.99" height="2995.67" filterUnits="userSpaceOnUse" color-interpolation-filters="sRGB">
<feFlood flood-opacity="0" result="BackgroundImageFix"/>
<feBlend mode="normal" in="SourceGraphic" in2="BackgroundImageFix" result="shape"/>
<feGaussianBlur stdDeviation="50" result="effect1_foregroundBlur_525_875"/>
</filter>
<filter id="filter1_f_525_875" x="79.4171" y="79.4073" width="1817.15" height="2608.09" filterUnits="userSpaceOnUse" color-interpolation-filters="sRGB">
<feFlood flood-opacity="0" result="BackgroundImageFix"/>
<feBlend mode="normal" in="SourceGraphic" in2="BackgroundImageFix" result="shape"/>
<feGaussianBlur stdDeviation="10.2963" result="effect1_foregroundBlur_525_875"/>
</filter>
<filter id="filter2_f_525_875" x="96.263" y="1930.8" width="1404.27" height="983.215" filterUnits="userSpaceOnUse" color-interpolation-filters="sRGB">
<feFlood flood-opacity="0" result="BackgroundImageFix"/>
<feBlend mode="normal" in="SourceGraphic" in2="BackgroundImageFix" result="shape"/>
<feGaussianBlur stdDeviation="10.1185" result="effect1_foregroundBlur_525_875"/>
</filter>
<filter id="filter3_f_525_875" x="347.066" y="677.905" width="1553.53" height="1607.81" filterUnits="userSpaceOnUse" color-interpolation-filters="sRGB">
<feFlood flood-opacity="0" result="BackgroundImageFix"/>
<feBlend mode="normal" in="SourceGraphic" in2="BackgroundImageFix" result="shape"/>
<feGaussianBlur stdDeviation="10.2963" result="effect1_foregroundBlur_525_875"/>
</filter>
<filter id="filter4_f_525_875" x="625.343" y="1220.89" width="1296.25" height="1635.7" filterUnits="userSpaceOnUse" color-interpolation-filters="sRGB">
<feFlood flood-opacity="0" result="BackgroundImageFix"/>
<feBlend mode="normal" in="SourceGraphic" in2="BackgroundImageFix" result="shape"/>
<feGaussianBlur stdDeviation="10.2963" result="effect1_foregroundBlur_525_875"/>
</filter>
<filter id="filter5_f_525_875" x="940.907" y="1937.95" width="719" height="978.314" filterUnits="userSpaceOnUse" color-interpolation-filters="sRGB">
<feFlood flood-opacity="0" result="BackgroundImageFix"/>
<feBlend mode="normal" in="SourceGraphic" in2="BackgroundImageFix" result="shape"/>
<feGaussianBlur stdDeviation="10.2963" result="effect1_foregroundBlur_525_875"/>
</filter>
<linearGradient id="paint0_linear_525_875" x1="597.961" y1="2967.14" x2="2527.62" y2="2123.37" gradientUnits="userSpaceOnUse">
<stop stop-color="#635AD9"/>
<stop offset="1" stop-color="#83EAFD"/>
</linearGradient>
<linearGradient id="paint1_linear_525_875" x1="901.561" y1="2387.03" x2="3250.54" y2="1701.62" gradientUnits="userSpaceOnUse">
<stop stop-color="#635AD9"/>
<stop offset="1" stop-color="#83EAFD"/>
</linearGradient>
<linearGradient id="paint2_linear_525_875" x1="774.851" y1="1972.02" x2="1927.35" y2="2937.28" gradientUnits="userSpaceOnUse">
<stop stop-color="#219BE4"/>
<stop offset="1" stop-color="#B7EFFE"/>
</linearGradient>
</defs>
</svg>
